<?xml version="1.0" standalone="no"?>
<!DOCTYPE svg PUBLIC "-//W3C//DTD SVG 20010904//EN"
 "http://www.w3.org/TR/2001/REC-SVG-20010904/DTD/svg10.dtd">
<svg version="1.0" xmlns="http://www.w3.org/2000/svg"
 width="512.000000pt" height="512.000000pt" viewBox="0 0 512.000000 512.000000"
 preserveAspectRatio="xMidYMid meet">
<metadata>
Created by potrace 1.11, written by Peter Selinger 2001-2013
</metadata>
<g transform="translate(0.000000,512.000000) scale(0.100000,-0.100000)"
fill="#000000" stroke="none">
<path d="M2356 5013 c-153 -19 -234 -40 -275 -70 -77 -58 -157 -152 -213 -250
-93 -164 -165 -264 -211 -296 -47 -31 -558 -290 -597 -302 -14 -4 -57 -23 -97
-42 -93 -44 -112 -71 -122 -170 -5 -57 -7 -1048 -2 -1328 1 -22 1 -47 1 -55
-1 -8 2 -442 5 -965 5 -945 7 -992 40 -1055 14 -27 95 -115 95 -104 0 4 9 -3
20 -16 11 -13 20 -19 20 -15 0 5 11 -2 25 -15 14 -13 25 -27 25 -32 0 -10 -38
13 -43 27 -2 5 -3 2 -1 -8 1 -10 -3 -16 -9 -14 -7 2 -11 11 -11 20 2 19 -23
31 -32 15 -4 -7 -3 -8 4 -4 8 5 12 0 12 -13 0 -12 5 -21 11 -21 5 0 7 -4 4
-10 -4 -6 1 -7 12 -3 16 6 17 5 4 -11 -12 -15 -17 -15 -25 -4 -6 7 -20 20 -31
28 -19 14 -19 14 -5 -5 23 -30 43 -43 57 -38 9 4 11 0 7 -11 -3 -9 -1 -16 6
-16 6 0 8 -5 5 -10 -3 -6 -1 -10 4 -10 14 0 14 13 -1 28 -7 7 -8 12 -2 12 21
0 33 -23 23 -42 -7 -12 -6 -18 1 -18 6 0 9 -4 6 -8 -3 -5 1 -9 8 -9 11 0 12 4
3 18 -8 13 -8 21 2 32 9 11 9 17 1 22 -6 4 -9 14 -6 22 4 9 1 12 -7 8 -6 -4
-4 0 5 8 10 8 14 18 10 23 -4 5 -3 6 2 1 14 -11 15 -47 2 -41 -6 3 -2 -2 9
-11 23 -18 23 -25 1 -37 -9 -5 -14 -13 -11 -19 9 -13 21 -11 39 7 9 8 17 13
17 10 1 -3 3 -10 4 -16 1 -5 3 -14 4 -20 2 -19 18 -10 30 18 10 23 10 25 -2
10 -17 -21 -28 -23 -24 -5 1 6 11 15 21 20 10 4 16 10 13 13 -3 3 -15 0 -27
-6 -14 -7 -20 -8 -16 -2 4 7 -1 10 -11 8 -14 -3 -19 3 -20 27 -1 29 0 30 13
12 8 -11 20 -20 27 -20 17 0 77 -26 77 -34 0 -3 -5 -13 -11 -21 -9 -13 -10
-12 -5 2 3 11 1 15 -8 12 -7 -3 -13 -11 -13 -19 0 -8 4 -12 8 -10 10 7 20 -24
13 -38 -4 -7 3 -2 15 10 25 26 28 41 4 22 -15 -12 -16 -12 -10 4 4 10 7 21 7
23 0 3 4 2 10 -1 6 -3 7 1 4 12 -3 10 1 7 9 -6 8 -14 13 -30 10 -37 -5 -15 17
-30 26 -18 3 5 15 16 25 24 18 14 18 13 12 -10 -5 -17 -4 -21 2 -11 10 14 28
-2 18 -17 -3 -5 1 -9 9 -9 13 0 13 3 0 23 -22 34 -18 43 7 14 15 -18 19 -20
15 -6 -6 14 -3 17 8 12 9 -3 26 1 39 9 21 14 25 14 37 -2 12 -15 12 -16 -5
-10 -19 8 -46 -8 -46 -26 0 -6 7 -2 15 9 13 16 16 17 25 4 8 -13 11 -13 19 -1
5 8 16 11 26 8 9 -4 14 -3 10 3 -3 6 -13 10 -21 10 -8 0 -12 5 -9 10 4 7 12 7
24 0 10 -5 22 -6 26 -2 5 4 5 -2 2 -13 -6 -17 -5 -18 6 -5 15 18 37 24 37 10
0 -6 -4 -10 -10 -10 -5 0 -10 -4 -10 -8 0 -11 39 -13 45 -1 3 5 -1 6 -10 3
-10 -4 -14 -2 -10 8 3 8 15 14 25 13 22 -1 40 -15 21 -15 -7 0 -9 -5 -5 -11 3
-6 9 -7 13 -3 3 5 15 16 25 24 18 14 18 13 12 -8 -5 -14 -3 -22 4 -22 6 0 8 5
4 11 -4 7 -1 10 7 7 8 -3 13 -11 11 -17 -1 -7 2 -10 8 -6 10 6 -8 45 -22 45
-17 0 -24 2 -35 12 -9 8 -13 7 -13 -3 0 -11 -2 -11 -10 1 -5 8 -10 10 -10 4 0
-6 -20 -10 -49 -10 -35 1 -47 4 -40 12 5 6 6 14 2 18 -4 4 0 4 10 0 9 -3 17
-11 17 -16 0 -7 5 -7 13 -1 16 12 216 11 225 -2 4 -6 19 -16 34 -24 15 -8 25
-17 23 -21 -3 -5 2 -11 10 -14 13 -4 14 -2 5 14 -9 16 -8 22 5 26 8 3 15 11
15 16 0 6 -5 7 -12 2 -7 -5 -20 -9 -28 -8 -8 1 -22 2 -30 3 -13 1 -13 3 -1 10
9 6 22 6 32 1 9 -5 19 -6 23 -3 11 11 37 12 30 2 -3 -6 0 -17 8 -26 11 -14 10
-15 -12 -10 -14 4 -19 4 -12 1 6 -3 12 -13 12 -22 1 -15 2 -15 11 0 5 10 17
18 25 18 8 0 12 -5 9 -10 -3 -6 -1 -10 5 -10 7 0 9 8 5 21 -7 22 -7 22 25 -1
l33 -23 -18 26 c-17 26 -34 39 -19 15 4 -7 3 -8 -4 -4 -24 14 -11 22 38 22 28
0 50 -4 50 -8 0 -4 5 -8 11 -8 5 0 8 3 6 8 -3 4 6 8 19 8 13 1 24 -2 24 -8 0
-5 -4 -7 -9 -4 -5 3 -14 0 -20 -8 -12 -14 -55 -10 -46 3 2 4 -2 8 -10 8 -11 0
-12 -4 -4 -14 12 -14 0 -18 -17 -6 -5 5 -1 0 9 -9 11 -10 24 -18 31 -18 6 0 4
5 -4 10 -12 8 -12 10 -1 10 8 0 20 -8 27 -18 13 -16 14 -16 8 1 -5 13 -2 16
12 11 14 -4 16 -3 5 4 -7 5 -9 12 -4 15 4 3 16 -1 26 -8 11 -8 14 -15 7 -18
-6 -3 -6 -5 1 -3 7 1 13 9 15 18 1 9 -3 15 -9 14 -7 -2 -9 -1 -4 1 4 3 5 8 3
12 -3 4 1 8 9 8 8 0 12 -4 9 -9 -6 -10 10 -11 20 -1 10 10 116 11 110 1 -3 -5
-1 -8 5 -8 6 0 8 -7 5 -15 -4 -8 -10 -15 -15 -15 -4 0 -6 7 -3 15 4 10 0 13
-15 10 -12 -2 -21 1 -21 8 0 8 -3 8 -12 -1 -7 -7 -17 -12 -22 -12 -6 0 -4 5 4
10 12 7 10 9 -7 7 -18 -1 -20 -4 -10 -16 10 -12 8 -13 -13 -8 -14 4 -20 4 -13
1 7 -3 10 -11 7 -19 -3 -7 -1 -16 5 -20 7 -4 8 0 4 11 -4 12 -3 15 5 10 7 -4
12 -2 12 4 0 7 7 9 16 6 9 -3 12 -2 9 5 -10 16 28 6 42 -11 11 -13 15 -13 28
5 9 10 27 19 41 20 13 0 29 7 34 15 5 8 10 11 10 5 0 -6 49 -10 127 -9 143 1
159 -2 143 -21 -8 -9 -8 -15 0 -20 5 -3 10 -5 11 -3 0 2 2 10 4 19 1 10 13 27
24 38 12 12 19 27 15 33 -4 7 -3 8 5 4 6 -4 9 -12 6 -17 -4 -5 -1 -17 5 -26 8
-14 10 -14 9 -3 -3 37 1 44 16 24 8 -10 14 -23 15 -29 0 -5 -5 -3 -10 5 -5 8
-10 10 -10 5 0 -6 6 -17 13 -24 10 -11 8 -12 -10 -7 -22 7 -41 -8 -23 -19 6
-4 8 -10 5 -15 -3 -5 -1 -11 4 -14 11 -7 9 13 -2 32 -5 6 -4 12 2 12 5 0 13
-5 16 -10 3 -6 11 -10 16 -10 6 0 7 5 3 11 -4 7 -1 10 7 7 8 -3 13 -11 11 -17
-1 -7 2 -10 8 -6 8 5 8 11 0 20 -8 9 -8 15 0 20 5 3 10 1 10 -6 0 -7 3 -9 7
-5 4 3 12 -4 19 -16 l12 -23 -1 26 c-1 14 -6 26 -12 27 -29 3 -45 9 -44 17 0
4 -6 12 -15 17 -9 5 -16 17 -15 26 0 14 2 14 6 2 6 -16 23 -30 35 -30 4 0 5 7
2 15 -4 8 -1 15 6 15 6 0 9 -4 6 -9 -3 -5 1 -12 10 -15 21 -8 21 -8 21 9 0 8
-5 15 -10 15 -6 0 -7 3 -4 6 4 4 18 -1 31 -10 23 -15 26 -15 36 2 10 15 11 15
6 0 -2 -9 2 -22 11 -30 14 -11 15 -10 9 12 -6 19 -5 21 3 10 7 -10 11 -11 11
-2 0 6 5 12 11 12 5 0 8 -4 5 -9 -3 -5 1 -12 10 -15 21 -8 26 -8 20 2 -2 4 0
14 6 22 8 12 9 12 5 -2 -4 -12 0 -16 14 -15 20 1 27 17 7 17 -6 0 -9 3 -5 6 3
3 13 2 23 -4 11 -6 13 -11 5 -16 -6 -4 -11 -13 -11 -19 1 -7 10 -1 22 13 13
15 19 18 15 8 -3 -10 -2 -20 3 -23 6 -4 10 -1 10 4 0 6 8 11 18 11 15 1 15 2
-2 15 -11 8 -16 15 -11 15 4 0 23 -11 42 -26 18 -14 33 -21 33 -15 0 5 -10 17
-22 25 -18 13 -19 16 -5 16 9 0 17 -4 17 -9 0 -5 11 -8 25 -5 15 3 27 -1 30
-9 3 -7 15 -13 25 -14 11 -1 18 2 15 7 -3 6 1 7 10 4 11 -5 14 -2 9 12 -5 16
-4 16 5 4 8 -11 7 -18 -3 -26 -12 -8 -12 -12 2 -22 14 -10 12 -10 -7 -1 -18 9
-22 8 -16 -2 6 -8 4 -10 -5 -4 -8 5 -11 4 -7 -1 3 -5 -3 -10 -13 -10 -10 0
-16 5 -13 11 3 5 0 4 -8 -3 -11 -10 -10 -15 5 -30 16 -16 18 -16 36 6 23 28
29 28 24 0 -3 -15 -2 -18 3 -8 5 8 15 17 23 19 24 5 44 9 53 10 4 1 7 5 7 10
0 6 -9 8 -20 6 -17 -3 -19 -1 -9 17 9 16 8 19 -3 16 -7 -3 -12 -15 -12 -26 2
-25 -11 -29 -20 -7 -3 8 1 21 9 29 8 7 11 17 7 21 -4 4 3 3 15 -4 14 -7 20
-17 16 -27 -3 -8 -2 -14 3 -13 34 6 44 -26 12 -37 -19 -6 -25 -24 -8 -24 6 0
10 5 10 11 0 6 7 8 16 5 8 -3 12 -2 9 4 -3 6 0 10 7 10 9 0 9 3 -2 10 -12 8
-12 10 -1 10 9 0 4 9 -13 25 -29 27 -33 37 -11 29 8 -4 13 -10 10 -14 -2 -4 7
-7 20 -7 16 0 25 5 26 16 0 9 5 4 11 -12 5 -15 14 -25 19 -21 5 3 5 13 -1 25
-7 13 -7 19 0 19 5 0 10 -7 10 -15 0 -8 5 -15 11 -15 5 0 7 5 3 12 -5 7 -3 8
6 3 10 -6 9 -11 -6 -22 -19 -14 -19 -15 1 -11 11 2 25 14 32 28 8 15 13 19 13
10 0 -9 -5 -21 -11 -27 -7 -7 -3 -11 15 -11 30 0 47 18 19 19 -10 0 -13 3 -6
5 7 3 22 0 33 -6 40 -22 69 -22 82 0 7 11 17 20 22 20 4 0 3 -7 -4 -15 -16
-19 0 -19 26 0 10 8 24 14 29 14 6 0 2 -4 -7 -10 -10 -5 -18 -15 -18 -21 0 -7
4 -7 13 1 8 6 17 8 20 4 4 -3 7 1 7 10 0 10 4 17 8 17 15 0 9 -29 -7 -36 -25
-11 -61 -12 -54 -1 3 5 -5 3 -18 -4 -29 -15 -109 -20 -109 -6 0 5 -7 4 -15 -3
-12 -10 -15 -10 -15 1 0 11 -2 11 -10 -1 -9 -13 -11 -13 -20 0 -7 12 -9 10 -7
-8 1 -13 11 -28 22 -33 19 -9 19 -9 2 4 -15 12 -15 16 -3 20 9 4 17 -1 21 -12
3 -10 12 -18 20 -18 8 0 12 4 10 8 -3 4 2 10 11 13 21 8 26 8 20 -2 -2 -4 0
-14 6 -22 8 -13 9 -12 5 1 -6 17 10 39 26 39 5 0 3 -8 -4 -17 -11 -15 -10 -14
9 1 22 19 32 10 11 -11 -8 -8 -7 -13 2 -18 7 -5 10 -4 6 2 -4 6 2 18 12 27 18
17 20 17 30 -2 6 -11 7 -23 3 -27 -4 -5 -2 -5 5 -1 7 4 10 12 7 19 -2 7 5 13
20 13 19 1 23 -2 19 -15 -4 -9 3 -5 14 9 21 24 21 24 42 6 11 -10 18 -23 14
-29 -3 -6 -1 -7 6 -3 9 6 9 11 1 21 -7 8 -7 16 -2 19 6 3 13 -2 17 -12 6 -15
8 -15 25 6 11 13 21 18 25 12 10 -15 25 -12 25 6 0 10 -5 14 -16 10 -8 -3 -12
-2 -9 3 8 14 44 9 38 -5 -2 -7 4 -17 15 -23 16 -8 23 -7 33 7 12 15 12 16 -2
4 -14 -11 -16 -9 -16 13 0 19 3 23 12 15 6 -5 15 -7 18 -3 4 3 7 1 7 -6 0 -7
5 -9 10 -6 6 4 8 15 5 24 -3 12 0 18 10 18 9 0 14 -6 11 -12 -2 -7 1 -12 7
-12 35 1 46 -4 41 -18 -4 -8 -4 -15 -1 -15 3 0 8 7 11 15 4 11 -3 19 -22 27
-26 11 -26 12 -4 15 12 3 22 8 22 13 0 5 -6 7 -14 4 -9 -4 -14 0 -12 10 3 20
16 33 16 16 0 -10 3 -11 11 -3 6 6 17 9 24 7 15 -6 28 23 14 32 -6 3 -13 3
-16 0 -4 -3 -1 -6 6 -6 7 0 9 -5 6 -10 -5 -8 -12 -7 -23 2 -13 11 -14 11 -7
-1 6 -11 4 -13 -11 -7 -40 16 -53 15 -47 -2 6 -15 5 -16 -12 -2 -15 12 -17 12
-10 1 5 -10 4 -12 -3 -7 -8 5 -10 1 -6 -11 4 -14 3 -15 -4 -4 -7 9 -12 10 -16
2 -4 -6 -2 -11 5 -11 7 0 9 -3 6 -6 -3 -4 -2 -16 4 -28 10 -20 10 -20 -5 -2
-12 14 -16 16 -16 5 0 -12 -2 -12 -10 1 -5 8 -10 10 -10 4 0 -6 -15 -10 -34
-9 -21 1 -32 -3 -29 -8 4 -6 1 -7 -7 -2 -8 5 -11 4 -7 -2 4 -7 -5 -10 -23 -8
-16 1 -28 -1 -25 -5 2 -3 -2 -7 -9 -7 -8 0 -12 10 -10 24 1 12 -3 23 -9 23 -5
0 -7 3 -4 6 4 4 13 1 22 -6 10 -8 15 -9 15 -1 0 6 5 11 12 11 9 0 9 -3 0 -12
-16 -16 -15 -33 1 -19 8 6 18 7 22 3 5 -4 5 1 2 11 -6 15 -4 16 16 6 21 -12
21 -11 7 7 -8 10 -10 16 -5 11 4 -4 18 1 29 10 21 18 21 18 2 -4 -28 -34 -4
-28 29 7 15 16 31 28 34 27 3 -1 16 4 27 11 12 6 24 8 28 5 3 -3 6 -2 6 4 0 6
26 26 59 46 86 54 127 103 141 173 9 42 14 275 16 814 3 415 4 762 4 770 0 8
0 40 0 70 0 47 0 99 0 153 0 6 1 352 3 767 4 829 3 843 -51 891 -16 15 -63 39
-103 55 -70 28 -588 281 -599 293 -3 3 -21 15 -40 25 -19 11 -39 25 -45 30
-15 17 -45 103 -64 186 -36 158 -89 223 -247 299 -166 81 -217 98 -349 116
-87 12 -286 11 -389 -2z m1670 -4725 c-3 -13 -5 -25 -5 -28 -1 -4 -12 -6 -25
-6 -20 0 -22 3 -13 17 6 10 15 15 19 13 5 -3 11 2 14 10 9 23 15 19 10 -6z
m-2974 -8 c-2 -7 5 -22 15 -33 l18 -21 -27 20 c-30 21 -35 34 -15 34 8 0 7 4
-3 11 -13 9 -13 10 0 6 8 -2 14 -10 12 -17z m2514 -35 c10 -8 15 -14 9 -14 -5
0 -19 6 -29 14 -11 8 -15 15 -10 15 6 0 19 -7 30 -15z m189 -5 c-3 -4 2 -11
10 -14 8 -3 14 -11 13 -18 -2 -7 3 -12 10 -10 8 1 11 -2 7 -8 -5 -8 -11 -8
-20 0 -8 7 -20 8 -27 4 -17 -11 -77 -13 -84 -3 -2 4 7 6 21 3 14 -2 25 0 25 5
0 5 9 11 20 14 13 3 18 11 15 26 -2 12 0 19 6 16 5 -4 7 -10 4 -15z m-140 0
c-3 -5 -11 -10 -16 -10 -6 0 -7 5 -4 10 3 6 11 10 16 10 6 0 7 -4 4 -10z
m-2495 -25 c-7 -8 -17 -15 -23 -15 -6 0 -2 7 9 15 25 19 30 19 14 0z m155 5
c-3 -5 -2 -10 4 -10 5 0 12 4 15 9 7 10 25 9 43 -2 6 -4 15 -3 18 3 5 8 11 8
20 0 9 -8 15 -8 20 0 9 15 24 3 21 -17 -3 -20 -26 -31 -26 -13 0 9 -3 10 -13
1 -8 -6 -17 -7 -21 -3 -13 12 -30 9 -60 -12 -23 -15 -28 -16 -24 -5 3 9 2 22
-2 29 -8 13 -5 30 6 30 3 0 2 -4 -1 -10z m228 -13 c-2 -4 -8 -5 -13 -2 -5 3
-12 1 -15 -5 -5 -8 -11 -8 -19 -1 -7 6 -16 8 -19 4 -4 -3 -7 -2 -7 4 0 5 18
10 39 9 22 0 37 -4 34 -9z m437 -8 c0 -12 -19 -21 -30 -14 -6 4 -8 10 -6 14 7
10 36 10 36 0z m404 0 c3 -3 -4 -5 -14 -6 -11 -1 -20 2 -20 7 0 8 25 8 34 -1z
m1494 -12 c-8 -15 -12 -17 -18 -6 -11 16 -5 26 14 26 12 0 13 -5 4 -20z m92
19 c0 -3 -4 -8 -10 -11 -5 -3 -10 -1 -10 4 0 6 5 11 10 11 6 0 10 -2 10 -4z
m-400 -26 c0 -5 -4 -10 -10 -10 -5 0 -10 5 -10 10 0 6 5 10 10 10 6 0 10 -4
10 -10z m-320 -10 c0 -5 -4 -10 -10 -10 -5 0 -10 5 -10 10 0 6 5 10 10 10 6 0
10 -4 10 -10z"/>
<path d="M3739 203 c-13 -17 -13 -17 6 -3 11 8 22 16 24 17 2 2 0 3 -6 3 -6 0
-17 -8 -24 -17z"/>
<path d="M1290 205 c-9 -10 -7 -13 7 -10 10 2 20 4 23 5 3 1 10 1 15 0 6 -1 6
2 2 6 -13 13 -36 13 -47 -1z"/>
<path d="M1356 211 c-4 -5 -2 -12 3 -15 5 -4 12 -2 15 3 4 5 2 12 -3 15 -5 4
-12 2 -15 -3z"/>
<path d="M1395 211 c-3 -5 -2 -12 3 -15 5 -3 9 1 9 9 0 17 -3 19 -12 6z"/>
<path d="M4110 360 c0 -5 5 -10 11 -10 5 0 7 5 4 10 -3 6 -8 10 -11 10 -2 0
-4 -4 -4 -10z"/>
<path d="M4150 357 c0 -2 6 -10 14 -16 11 -9 16 -9 22 1 4 7 4 10 -1 6 -4 -4
-14 -3 -22 3 -7 6 -13 9 -13 6z"/>
<path d="M4041 341 c-9 -6 -10 -11 -2 -15 6 -4 11 -2 11 4 0 6 5 8 12 4 7 -4
8 -3 4 4 -8 14 -7 14 -25 3z"/>
<path d="M918 288 c2 -10 6 -18 7 -18 1 0 5 8 7 18 3 11 0 19 -7 19 -7 0 -10
-8 -7 -19z"/>
<path d="M4115 300 c-3 -5 -1 -10 4 -10 6 0 11 5 11 10 0 6 -2 10 -4 10 -3 0
-8 -4 -11 -10z"/>
<path d="M3924 269 c-22 -25 -24 -29 -8 -21 12 6 25 8 29 4 5 -4 6 0 2 9 -3 9
0 22 6 28 6 6 9 11 6 11 -3 0 -18 -14 -35 -31z"/>
<path d="M839 273 c-13 -16 -12 -17 4 -4 16 13 21 21 13 21 -2 0 -10 -8 -17
-17z"/>
<path d="M890 281 c0 -6 4 -13 10 -16 6 -3 7 1 4 9 -7 18 -14 21 -14 7z"/>
<path d="M4070 269 c0 -5 5 -7 10 -4 6 3 10 8 10 11 0 2 -4 4 -10 4 -5 0 -10
-5 -10 -11z"/>
<path d="M957 255 c6 -18 5 -19 -13 -5 -17 14 -18 14 -6 -2 8 -9 11 -23 7 -30
-4 -7 1 -4 10 7 9 11 18 19 21 17 3 -2 8 -1 10 2 2 3 1 4 -3 1 -3 -3 -12 3
-20 13 -12 16 -13 15 -6 -3z"/>
<path d="M4095 261 c-3 -5 0 -13 6 -16 5 -4 8 -14 4 -24 -5 -12 -4 -13 6 -4
10 10 9 16 -2 29 -13 16 -12 17 9 12 12 -4 20 -2 16 3 -7 12 -31 12 -39 0z"/>
<path d="M4070 240 c0 -5 5 -10 11 -10 5 0 7 5 4 10 -3 6 -8 10 -11 10 -2 0
-4 -4 -4 -10z"/>
<path d="M995 229 c-4 -6 -5 -12 -2 -15 2 -3 7 2 10 11 7 17 1 20 -8 4z"/>
<path d="M2832 228 c2 -8 -5 -12 -19 -11 -13 2 -23 -2 -23 -8 0 -5 5 -7 10 -4
6 3 10 1 10 -4 0 -6 3 -10 8 -10 21 4 36 -2 25 -9 -8 -5 -8 -12 3 -26 8 -11
14 -15 14 -8 0 6 8 9 18 6 14 -5 14 -4 2 4 -8 6 -18 8 -22 6 -10 -6 -11 10 -1
19 3 4 13 2 20 -5 9 -7 17 -8 21 -2 9 12 32 16 32 5 0 -5 -6 -12 -12 -14 -10
-4 -10 -6 0 -6 7 -1 15 5 18 12 4 11 23 14 54 8 3 -1 -2 -5 -10 -11 -8 -5 -11
-13 -6 -17 5 -4 11 -2 13 5 3 6 9 12 14 12 6 0 7 -5 3 -11 -5 -8 -1 -8 13 0
14 7 24 7 33 -2 8 -8 11 -8 7 -1 -4 7 0 17 8 24 13 11 20 9 42 -11 15 -13 21
-16 14 -6 -14 18 -5 22 18 8 8 -5 11 -16 8 -26 -4 -10 -3 -14 4 -9 6 3 8 17 5
30 -7 25 17 46 42 37 6 -3 12 0 12 5 0 6 -11 9 -25 7 -20 -2 -23 1 -14 11 8
10 6 13 -10 11 -11 0 -17 -5 -15 -9 12 -19 -9 -29 -27 -12 -17 15 -21 15 -42
1 -17 -11 -28 -12 -35 -5 -6 6 -12 6 -16 -1 -4 -5 -13 -8 -21 -5 -8 4 -12 11
-9 16 4 6 -3 5 -15 -1 -15 -8 -27 -9 -40 -2 -15 8 -20 7 -25 -6 -6 -15 -8 -15
-24 0 -15 16 -17 16 -28 -4 -10 -19 -12 -19 -17 -5 -5 11 -3 15 4 10 7 -4 10
-1 7 6 -6 18 -29 26 -26 8z m59 -31 c-1 -12 -15 -9 -19 4 -3 6 1 10 8 8 6 -3
11 -8 11 -12z m94 3 c0 -1 13 -4 28 -6 22 -4 27 -2 21 8 -5 10 -4 10 6 1 11
-10 17 -10 29 0 11 8 10 4 -2 -10 -19 -22 -55 -25 -79 -6 -7 5 -27 9 -45 8
-18 -1 -30 2 -28 5 3 5 70 5 70 0z m135 0 c9 -6 20 -5 30 3 13 10 13 10 3 -4
-14 -18 -55 -18 -61 -1 -4 14 7 15 28 2z"/>
<path d="M3368 216 c5 -6 8 -21 7 -33 -1 -19 1 -21 19 -10 22 12 46 18 46 11
0 -2 -12 -10 -27 -18 -26 -13 -26 -15 -5 -13 12 1 22 6 22 12 0 5 4 4 9 -4 6
-9 9 -5 9 13 0 14 -4 27 -9 27 -5 1 -14 2 -19 3 -6 0 -14 6 -18 11 -4 6 -15
11 -25 11 -12 1 -15 -2 -9 -10z m36 -27 c-3 -5 -10 -7 -15 -3 -5 3 -7 10 -3
15 3 5 10 7 15 3 5 -3 7 -10 3 -15z"/>
<path d="M1013 201 c0 -11 5 -18 9 -15 4 3 5 11 1 19 -7 21 -12 19 -10 -4z"/>
<path d="M3540 210 c8 -5 20 -10 25 -10 6 0 3 5 -5 10 -8 5 -19 10 -25 10 -5
0 -3 -5 5 -10z"/>
<path d="M1690 201 c0 -2 7 -13 16 -23 16 -17 18 -17 29 -1 11 15 14 14 28
-13 9 -16 16 -23 17 -16 0 7 5 10 12 6 7 -4 8 -3 4 4 -11 19 5 14 21 -5 13
-16 13 -16 3 5 -12 25 -21 27 -39 10 -10 -11 -11 -8 -8 12 5 24 2 25 -39 26
-24 0 -44 -2 -44 -5z m40 -15 c-7 -7 -13 -7 -20 0 -6 6 -3 10 10 10 13 0 16
-4 10 -10z"/>
<path d="M2680 195 c-7 -9 -10 -18 -7 -22 4 -3 2 -14 -4 -24 -5 -11 -7 -19 -5
-19 7 0 27 38 31 61 5 23 1 24 -15 4z"/>
<path d="M4015 200 c3 -5 8 -10 11 -10 2 0 4 5 4 10 0 6 -5 10 -11 10 -5 0 -7
-4 -4 -10z"/>
<path d="M3990 190 c0 -5 5 -10 11 -10 5 0 7 5 4 10 -3 6 -8 10 -11 10 -2 0
-4 -4 -4 -10z"/>
<path d="M1110 180 c-12 -7 -10 -9 7 -7 12 0 19 5 17 9 -6 10 -6 10 -24 -2z"/>
<path d="M2357 176 c-4 -10 -12 -13 -24 -9 -15 6 -16 5 -3 -9 13 -14 16 -14
23 -1 7 11 12 11 22 3 8 -7 20 -10 27 -7 8 4 7 6 -4 6 -9 1 -21 8 -26 17 -8
15 -10 15 -15 0z"/>
<path d="M2386 179 c7 -13 43 -17 38 -5 -2 6 -13 12 -24 12 -10 0 -17 -3 -14
-7z"/>
<path d="M2436 178 c3 -4 9 -8 15 -8 5 0 9 4 9 8 0 5 -7 9 -15 9 -8 0 -12 -4
-9 -9z"/>
<path d="M2473 167 c0 -12 1 -16 4 -9 3 6 9 12 14 12 6 0 7 -4 4 -10 -3 -5 -1
-10 4 -10 13 0 14 11 3 25 -13 18 -28 14 -29 -8z"/>
<path d="M2510 184 c0 -2 9 -8 20 -14 15 -8 18 -8 14 3 -4 11 -34 21 -34 11z"/>
<path d="M2566 174 c-3 -8 0 -16 6 -20 6 -4 8 -3 5 3 -4 6 0 14 9 17 24 9 26
8 14 -14 -15 -27 -6 -25 13 3 15 23 14 23 -14 23 -15 0 -30 -5 -33 -12z"/>
<path d="M1035 169 c-4 -6 -5 -12 -2 -15 2 -3 7 2 10 11 7 17 1 20 -8 4z"/>
<path d="M4012 171 c-11 -7 -11 -9 0 -14 9 -3 15 1 15 9 0 8 -1 14 -1 14 -1 0
-7 -4 -14 -9z"/>
<path d="M4050 176 c0 -2 8 -10 18 -17 15 -13 16 -12 3 4 -13 16 -21 21 -21
13z"/>
<path d="M996 158 c3 -5 10 -6 15 -3 13 9 11 12 -6 12 -8 0 -12 -4 -9 -9z"/>
<path d="M1175 160 c-3 -6 1 -7 9 -4 18 7 21 14 7 14 -6 0 -13 -4 -16 -10z"/>
<path d="M1741 154 c0 -11 3 -14 6 -6 3 7 2 16 -1 19 -3 4 -6 -2 -5 -13z"/>
<path d="M2296 155 c-9 -26 -7 -32 5 -12 6 10 9 21 6 23 -2 3 -7 -2 -11 -11z"/>
<path d="M3070 160 c0 -5 5 -10 10 -10 6 0 10 5 10 10 0 6 -4 10 -10 10 -5 0
-10 -4 -10 -10z"/>
<path d="M3270 150 c-6 -11 -9 -20 -8 -20 2 0 11 9 21 20 9 11 13 20 7 20 -5
0 -14 -9 -20 -20z"/>
<path d="M3645 160 c-3 -5 -1 -10 4 -10 6 0 11 5 11 10 0 6 -2 10 -4 10 -3 0
-8 -4 -11 -10z"/>
<path d="M3755 160 c3 -5 11 -10 16 -10 6 0 7 5 4 10 -3 6 -11 10 -16 10 -6 0
-7 -4 -4 -10z"/>
<path d="M3850 160 c0 -5 5 -10 10 -10 6 0 10 5 10 10 0 6 -4 10 -10 10 -5 0
-10 -4 -10 -10z"/>
<path d="M3890 158 c0 -6 3 -8 7 -5 3 4 13 1 22 -6 14 -11 14 -10 2 6 -15 20
-31 22 -31 5z"/>
<path d="M3970 159 c0 -5 5 -7 10 -4 6 3 10 8 10 11 0 2 -4 4 -10 4 -5 0 -10
-5 -10 -11z"/>
<path d="M2236 147 c3 -10 9 -15 12 -12 3 3 0 11 -7 18 -10 9 -11 8 -5 -6z"/>
<path d="M1180 140 c-9 -6 -10 -10 -3 -10 6 0 15 5 18 10 8 12 4 12 -15 0z"/>
<path d="M1508 143 c6 -2 18 -2 25 0 6 3 1 5 -13 5 -14 0 -19 -2 -12 -5z"/>
<path d="M1955 141 c-3 -5 0 -13 6 -17 7 -4 9 -3 5 4 -3 5 0 13 6 15 9 4 10 6
1 6 -6 1 -14 -3 -18 -8z"/>
<path d="M2006 142 c-3 -5 1 -9 9 -9 8 0 12 4 9 9 -3 4 -7 8 -9 8 -2 0 -6 -4
-9 -8z"/>
<path d="M2210 140 c0 -5 5 -10 11 -10 5 0 7 5 4 10 -3 6 -8 10 -11 10 -2 0
-4 -4 -4 -10z"/>
<path d="M2430 140 c14 -9 7 -14 -13 -11 -5 1 -6 -3 -2 -9 5 -8 11 -8 21 1 15
12 10 29 -9 29 -7 0 -6 -4 3 -10z"/>
<path d="M2540 146 c0 -2 7 -7 16 -10 8 -3 12 -2 9 4 -6 10 -25 14 -25 6z"/>
<path d="M2619 148 c-7 -23 -4 -35 7 -35 9 0 11 4 4 12 -5 7 -7 15 -3 18 3 4
3 7 0 7 -4 0 -7 -1 -8 -2z"/>
<path d="M2900 146 c0 -2 11 -6 25 -8 13 -3 22 -1 19 3 -5 9 -44 13 -44 5z"/>
<path d="M3028 143 c6 -2 9 -10 6 -15 -4 -7 -2 -8 5 -4 13 9 5 26 -12 25 -9 0
-8 -2 1 -6z"/>
<path d="M3099 148 c-7 -23 -4 -35 7 -35 9 0 11 4 4 12 -5 7 -7 15 -3 18 3 4
3 7 0 7 -4 0 -7 -1 -8 -2z"/>
<path d="M3217 143 c-9 -8 12 -33 27 -33 6 0 3 5 -7 11 -9 6 -15 14 -12 20 7
10 2 12 -8 2z"/>
<path d="M3335 140 c-3 -5 -1 -10 4 -10 6 0 11 5 11 10 0 6 -2 10 -4 10 -3 0
-8 -4 -11 -10z"/>
<path d="M3360 146 c0 -2 7 -7 16 -10 8 -3 12 -2 9 4 -6 10 -25 14 -25 6z"/>
<path d="M3470 140 c14 -9 7 -14 -13 -11 -5 1 -6 -3 -2 -9 5 -8 11 -8 21 1 15
12 10 29 -9 29 -7 0 -6 -4 3 -10z"/>
<path d="M3695 140 c-3 -5 -1 -10 4 -10 6 0 11 5 11 10 0 6 -2 10 -4 10 -3 0
-8 -4 -11 -10z"/>
<path d="M3820 140 c-9 -6 -10 -10 -3 -10 6 0 15 5 18 10 8 12 4 12 -15 0z"/>
<path d="M1615 129 c-4 -6 -5 -12 -2 -15 2 -3 7 2 10 11 7 17 1 20 -8 4z"/>
<path d="M3855 131 c-3 -5 -2 -12 3 -15 5 -3 9 1 9 9 0 17 -3 19 -12 6z"/>
<path d="M3893 125 c0 -8 4 -12 9 -9 5 3 6 10 3 15 -9 13 -12 11 -12 -6z"/>
<path d="M1540 126 c0 -2 8 -10 18 -17 15 -13 16 -12 3 4 -13 16 -21 21 -21
13z"/>
<path d="M1720 120 c-9 -6 -10 -10 -3 -10 6 0 15 5 18 10 8 12 4 12 -15 0z"/>
<path d="M1756 122 c-3 -5 1 -9 9 -9 8 0 12 4 9 9 -3 4 -7 8 -9 8 -2 0 -6 -4
-9 -8z"/>
<path d="M1816 118 c3 -4 11 -5 19 -1 21 7 19 12 -4 10 -11 0 -18 -5 -15 -9z"/>
<path d="M2326 122 c-3 -5 1 -9 9 -9 8 0 12 4 9 9 -3 4 -7 8 -9 8 -2 0 -6 -4
-9 -8z"/>
<path d="M2806 122 c-3 -5 1 -9 9 -9 8 0 12 4 9 9 -3 4 -7 8 -9 8 -2 0 -6 -4
-9 -8z"/>
<path d="M3595 119 c-3 -4 2 -6 10 -5 21 3 28 13 10 13 -9 0 -18 -4 -20 -8z"/>
<path d="M4016 113 c-6 -14 -5 -15 5 -6 7 7 10 15 7 18 -3 3 -9 -2 -12 -12z"/>
<path d="M2654 96 c1 -8 5 -18 8 -22 4 -3 5 1 4 10 -1 8 -5 18 -8 22 -4 3 -5
-1 -4 -10z"/>
<path d="M2773 95 c0 -8 4 -12 9 -9 5 3 6 10 3 15 -9 13 -12 11 -12 -6z"/>
<path d="M3136 102 c-2 -4 -1 -14 4 -22 7 -11 9 -9 7 8 -1 24 -3 26 -11 14z"/>
<path d="M3510 100 c0 -5 5 -10 11 -10 5 0 7 5 4 10 -3 6 -8 10 -11 10 -2 0
-4 -4 -4 -10z"/>
<path d="M1830 86 c0 -2 7 -7 16 -10 8 -3 12 -2 9 4 -6 10 -25 14 -25 6z"/>
</g>
</svg>
